name Walk8.mot
datacolumns 19
datarows 20
range 2.24200000 2.26100000
endheader

                time	   L_ground_force_vx	   L_ground_force_vy	   L_ground_force_vz	   L_ground_force_px	   L_ground_force_py	   L_ground_force_pz	   R_ground_force_vx	   R_ground_force_vy	   R_ground_force_vz	   R_ground_force_px	   R_ground_force_py	   R_ground_force_pz	   L_ground_torque_x	   L_ground_torque_y	   L_ground_torque_z	   R_ground_torque_x	   R_ground_torque_y	   R_ground_torque_z	
          2.24200000	          0.00000000	          0.00000000	          0.00000000	          0.00000000	          0.00000000	          0.00000000	         42.42843718	        936.17992833	         60.67184898	         -0.26344541	          0.00000000	         -0.02893676	          0.00000000	          0.00000000	          0.00000000	          0.00000000	         -2.32846017	          0.00000000	
          2.24300000	          0.00000000	          0.00000000	          0.00000000	          0.00000000	          0.00000000	          0.00000000	         43.06800824	        936.58311317	         60.72554637	         -0.26315402	          0.00000000	         -0.02911691	          0.00000000	          0.00000000	          0.00000000	          0.00000000	         -2.32597350	          0.00000000	
          2.24400000	          0.00000000	          0.00000000	          0.00000000	          0.00000000	          0.00000000	          0.00000000	         43.71434261	        937.00415643	         60.80162268	         -0.26286624	          0.00000000	         -0.02924315	          0.00000000	          0.00000000	          0.00000000	          0.00000000	         -2.32696895	          0.00000000	
          2.24500000	          0.00000000	          0.00000000	          0.00000000	          0.00000000	          0.00000000	          0.00000000	         44.35692484	        937.51447873	         60.91004950	         -0.26256076	          0.00000000	         -0.02932831	          0.00000000	          0.00000000	          0.00000000	          0.00000000	         -2.32847824	          0.00000000	
          2.24600000	          0.00000000	          0.00000000	          0.00000000	          0.00000000	          0.00000000	          0.00000000	         44.99714047	        938.14152233	         61.04864791	         -0.26221965	          0.00000000	         -0.02939675	          0.00000000	          0.00000000	          0.00000000	          0.00000000	         -2.32596292	          0.00000000	
          2.24700000	          0.00000000	          0.00000000	          0.00000000	          0.00000000	          0.00000000	          0.00000000	         45.64408349	        938.85563270	         61.20523836	         -0.26184191	          0.00000000	         -0.02946765	          0.00000000	          0.00000000	          0.00000000	          0.00000000	         -2.31401100	          0.00000000	
          2.24800000	          0.00000000	          0.00000000	          0.00000000	          0.00000000	          0.00000000	          0.00000000	         46.30556781	        939.59803405	         61.36163023	         -0.26144208	          0.00000000	         -0.02954617	          0.00000000	          0.00000000	          0.00000000	          0.00000000	         -2.29022321	          0.00000000	
          2.24900000	          0.00000000	          0.00000000	          0.00000000	          0.00000000	          0.00000000	          0.00000000	         46.98259856	        940.31954497	         61.50169614	         -0.26104040	          0.00000000	         -0.02963216	          0.00000000	          0.00000000	          0.00000000	          0.00000000	         -2.25803680	          0.00000000	
          2.25000000	          0.00000000	          0.00000000	          0.00000000	          0.00000000	          0.00000000	          0.00000000	         47.66822619	        940.99254052	         61.61974807	         -0.26065356	          0.00000000	         -0.02973117	          0.00000000	          0.00000000	          0.00000000	          0.00000000	         -2.22326777	          0.00000000	
          2.25100000	          0.00000000	          0.00000000	          0.00000000	          0.00000000	          0.00000000	          0.00000000	         48.35025399	        941.60465648	         61.72055647	         -0.26029043	          0.00000000	         -0.02985098	          0.00000000	          0.00000000	          0.00000000	          0.00000000	         -2.18905674	          0.00000000	
          2.25200000	          0.00000000	          0.00000000	          0.00000000	          0.00000000	          0.00000000	          0.00000000	         49.01787906	        942.15709523	         61.81156527	         -0.25994806	          0.00000000	         -0.02999186	          0.00000000	          0.00000000	          0.00000000	          0.00000000	         -2.15700903	          0.00000000	
          2.25300000	          0.00000000	          0.00000000	          0.00000000	          0.00000000	          0.00000000	          0.00000000	         49.66476504	        942.66288716	         61.90015462	         -0.25961088	          0.00000000	         -0.03014495	          0.00000000	          0.00000000	          0.00000000	          0.00000000	         -2.13084234	          0.00000000	
          2.25400000	          0.00000000	          0.00000000	          0.00000000	          0.00000000	          0.00000000	          0.00000000	         50.28564743	        943.14330454	         61.99443155	         -0.25926388	          0.00000000	         -0.03030109	          0.00000000	          0.00000000	          0.00000000	          0.00000000	         -2.11552362	          0.00000000	
          2.25500000	          0.00000000	          0.00000000	          0.00000000	          0.00000000	          0.00000000	          0.00000000	         50.87650218	        943.63526166	         62.09810386	         -0.25890881	          0.00000000	         -0.03045586	          0.00000000	          0.00000000	          0.00000000	          0.00000000	         -2.11333145	          0.00000000	
          2.25600000	          0.00000000	          0.00000000	          0.00000000	          0.00000000	          0.00000000	          0.00000000	         51.44145734	        944.17130652	         62.20698129	         -0.25855855	          0.00000000	         -0.03059932	          0.00000000	          0.00000000	          0.00000000	          0.00000000	         -2.12190115	          0.00000000	
          2.25700000	          0.00000000	          0.00000000	          0.00000000	          0.00000000	          0.00000000	          0.00000000	         51.99702788	        944.73442865	         62.31079558	         -0.25821522	          0.00000000	         -0.03071847	          0.00000000	          0.00000000	          0.00000000	          0.00000000	         -2.13680334	          0.00000000	
          2.25800000	          0.00000000	          0.00000000	          0.00000000	          0.00000000	          0.00000000	          0.00000000	         52.56713219	        945.26785175	         62.39553586	         -0.25786251	          0.00000000	         -0.03081876	          0.00000000	          0.00000000	          0.00000000	          0.00000000	         -2.15343859	          0.00000000	
          2.25900000	          0.00000000	          0.00000000	          0.00000000	          0.00000000	          0.00000000	          0.00000000	         53.16823063	        945.74892180	         62.45104371	         -0.25748252	          0.00000000	         -0.03092199	          0.00000000	          0.00000000	          0.00000000	          0.00000000	         -2.16437910	          0.00000000	
          2.26000000	          0.00000000	          0.00000000	          0.00000000	          0.00000000	          0.00000000	          0.00000000	         53.79482544	        946.24256496	         62.48163230	         -0.25707903	          0.00000000	         -0.03104048	          0.00000000	          0.00000000	          0.00000000	          0.00000000	         -2.16041213	          0.00000000	
          2.26100000	          0.00000000	          0.00000000	          0.00000000	          0.00000000	          0.00000000	          0.00000000	         54.42364485	        946.85341979	         62.50578406	         -0.25667851	          0.00000000	         -0.03116959	          0.00000000	          0.00000000	          0.00000000	          0.00000000	         -2.13863289	          0.00000000	
